<?xml version="1.0" encoding="utf-8"?>
<!-- Generator: Adobe Illustrator 19.2.1, SVG Export Plug-In . SVG Version: 6.00 Build 0)  -->
<svg version="1.1" id="레이어_1" xmlns="http://www.w3.org/2000/svg" xmlns:xlink="http://www.w3.org/1999/xlink" x="0px"
	 y="0px" viewBox="0 0 192 192" style="enable-background:new 0 0 192 192;" xml:space="preserve">
<style type="text/css">
	.st0{fill:#ED0A80;}
	.st1{fill:#FFFFFF;}
	.st2{fill:#EC0E7F;}
	.st3{fill:#FFFFFF;stroke:#989898;stroke-miterlimit:10;}
	.st4{fill:none;stroke:#989898;stroke-miterlimit:10;}
</style>
<g>
	<path class="st0" d="M-727,572h-442c-19.2,0-35-15.8-35-35V95c0-19.2,15.8-35,35-35h442c19.2,0,35,15.8,35,35v442
		C-692,556.2-707.8,572-727,572z"/>
	<path class="st1" d="M-742.5,554h-411c-17.9,0-32.5-14.6-32.5-32.5v-411c0-17.9,14.6-32.5,32.5-32.5h411
		c17.9,0,32.5,14.6,32.5,32.5v411C-710,539.4-724.6,554-742.5,554z"/>
	<path class="st2" d="M-843.6,371.4c-8.6,43.6-47.1,76.4-93.1,76.4c-52.5,0-95-42.5-95-95c0-52.4,42.5-95,95-95
		c30.5,0,57.7,14.4,75.1,36.8l-16.8,31c-10.2-21.9-32.5-37.1-58.2-37.1c-35.5,0-64.3,28.8-64.3,64.2c0,35.5,28.8,64.3,64.3,64.3
		c24.4,0,45.6-13.6,56.5-33.7h0l33.3-61.5l14-25.8c-4.7-8.5-10.3-16.4-16.8-23.4c-21.6-23.4-52.6-38.1-86.9-38.1
		c-65.3,0-118.3,52.9-118.3,118.3S-1002.1,471-936.8,471c58,0,106.3-41.8,116.3-96.9L-843.6,371.4z M-936.8,389.6
		c-20.3,0-36.8-16.5-36.8-36.8c0-20.3,16.5-36.8,36.8-36.8c20.3,0,36.8,16.5,36.8,36.8C-900,373.1-916.5,389.6-936.8,389.6z"/>
	<path class="st3" d="M-1036.8,292.6l-21.3-34.2c0,0-23.1,22.9-35,3.2c-13.4-22.1,14.2-38.6,23.3-39.7c0,0-30.7-15.9-20.3-35
		c0,0,17.2-35.2,54.7,3.2c0,0-17.5-30.3,13.2-43.2c20.6-8.7,32.3,14.9,31.1,29.2c0,0,15.6-30.1,34.8-17.4c0,0,28.5,16.4-17.5,40.5
		l20.9,38.2l-37.6,31L-1036.8,292.6z"/>
	<line class="st4" x1="-1033.7" y1="236.5" x2="-1006.8" y2="268.7"/>
	<line class="st4" x1="-1007" y1="207.6" x2="-985.5" y2="254.6"/>
</g>
<g>
	<path class="st0" d="M-384.9,352h-62.2c-2.7,0-4.9-2.2-4.9-4.9v-62.2c0-2.7,2.2-4.9,4.9-4.9h62.2c2.7,0,4.9,2.2,4.9,4.9v62.2
		C-380,349.8-382.2,352-384.9,352z"/>
	<path class="st1" d="M-387.1,349.5h-57.8c-2.5,0-4.6-2.1-4.6-4.6v-57.8c0-2.5,2.1-4.6,4.6-4.6h57.8c2.5,0,4.6,2.1,4.6,4.6v57.8
		C-382.5,347.4-384.6,349.5-387.1,349.5z"/>
	<path class="st2" d="M-401.3,323.8c-1.2,6.1-6.6,10.7-13.1,10.7c-7.4,0-13.4-6-13.4-13.4c0-7.4,6-13.4,13.4-13.4
		c4.3,0,8.1,2,10.6,5.2l-2.4,4.4c-1.4-3.1-4.6-5.2-8.2-5.2c-5,0-9,4-9,9c0,5,4,9,9,9c3.4,0,6.4-1.9,7.9-4.7h0l4.7-8.6l2-3.6
		c-0.7-1.2-1.5-2.3-2.4-3.3c-3-3.3-7.4-5.4-12.2-5.4c-9.2,0-16.6,7.4-16.6,16.6s7.4,16.6,16.6,16.6c8.2,0,14.9-5.9,16.4-13.6
		L-401.3,323.8z M-414.4,326.3c-2.9,0-5.2-2.3-5.2-5.2s2.3-5.2,5.2-5.2c2.9,0,5.2,2.3,5.2,5.2S-411.6,326.3-414.4,326.3z"/>
	<path class="st3" d="M-428.5,312.7l-3-4.8c0,0-3.2,3.2-4.9,0.5c-1.9-3.1,2-5.4,3.3-5.6c0,0-4.3-2.2-2.9-4.9c0,0,2.4-4.9,7.7,0.4
		c0,0-2.5-4.3,1.9-6.1c2.9-1.2,4.5,2.1,4.4,4.1c0,0,2.2-4.2,4.9-2.4c0,0,4,2.3-2.5,5.7l2.9,5.4l-5.3,4.4L-428.5,312.7z"/>
	<line class="st4" x1="-428.1" y1="304.8" x2="-424.3" y2="309.4"/>
	<line class="st4" x1="-424.3" y1="300.8" x2="-421.3" y2="307.4"/>
</g>
<g>
	<path class="st0" d="M-282.6,144h-82.9c-3.6,0-6.6-3-6.6-6.6V54.6c0-3.6,3-6.6,6.6-6.6h82.9c3.6,0,6.6,3,6.6,6.6v82.9
		C-276,141-279,144-282.6,144z"/>
	<path class="st1" d="M-285.5,140.6h-77.1c-3.4,0-6.1-2.7-6.1-6.1V57.5c0-3.4,2.7-6.1,6.1-6.1h77.1c3.4,0,6.1,2.7,6.1,6.1v77.1
		C-279.4,137.9-282.1,140.6-285.5,140.6z"/>
	<path class="st2" d="M-304.4,106.4c-1.6,8.2-8.8,14.3-17.5,14.3c-9.8,0-17.8-8-17.8-17.8c0-9.8,8-17.8,17.8-17.8
		c5.7,0,10.8,2.7,14.1,6.9l-3.2,5.8c-1.9-4.1-6.1-7-10.9-7c-6.7,0-12,5.4-12,12c0,6.7,5.4,12,12,12c4.6,0,8.6-2.6,10.6-6.3h0
		l6.2-11.5l2.6-4.8c-0.9-1.6-1.9-3.1-3.2-4.4c-4.1-4.4-9.9-7.1-16.3-7.1c-12.2,0-22.2,9.9-22.2,22.2c0,12.2,9.9,22.2,22.2,22.2
		c10.9,0,19.9-7.8,21.8-18.2L-304.4,106.4z M-321.9,109.8c-3.8,0-6.9-3.1-6.9-6.9s3.1-6.9,6.9-6.9c3.8,0,6.9,3.1,6.9,6.9
		S-318.1,109.8-321.9,109.8z"/>
	<path class="st3" d="M-340.7,91.6l-4-6.4c0,0-4.3,4.3-6.6,0.6c-2.5-4.1,2.7-7.2,4.4-7.4c0,0-5.8-3-3.8-6.6c0,0,3.2-6.6,10.3,0.6
		c0,0-3.3-5.7,2.5-8.1c3.9-1.6,6.1,2.8,5.8,5.5c0,0,2.9-5.6,6.5-3.3c0,0,5.3,3.1-3.3,7.6l3.9,7.2l-7.1,5.8L-340.7,91.6z"/>
	<line class="st4" x1="-340.1" y1="81.1" x2="-335" y2="87.1"/>
	<line class="st4" x1="-335.1" y1="75.7" x2="-331" y2="84.5"/>
</g>
<g>
	<path class="st0" d="M-97.8,168.4h-124.3c-5.4,0-9.8-4.4-9.8-9.8V34.2c0-5.4,4.4-9.8,9.8-9.8h124.3c5.4,0,9.8,4.4,9.8,9.8v124.3
		C-88,163.9-92.4,168.4-97.8,168.4z"/>
	<path class="st1" d="M-102.2,163.3h-115.6c-5,0-9.2-4.1-9.2-9.2V38.6c0-5,4.1-9.2,9.2-9.2h115.6c5,0,9.2,4.1,9.2,9.2v115.6
		C-93.1,159.2-97.2,163.3-102.2,163.3z"/>
	<path class="st2" d="M-130.6,111.9c-2.4,12.3-13.2,21.5-26.2,21.5c-14.8,0-26.7-12-26.7-26.7c0-14.7,12-26.7,26.7-26.7
		c8.6,0,16.2,4.1,21.1,10.3l-4.7,8.7c-2.9-6.2-9.1-10.4-16.4-10.4c-10,0-18.1,8.1-18.1,18.1c0,10,8.1,18.1,18.1,18.1
		c6.9,0,12.8-3.8,15.9-9.5h0l9.4-17.3l3.9-7.3c-1.3-2.4-2.9-4.6-4.7-6.6c-6.1-6.6-14.8-10.7-24.5-10.7c-18.4,0-33.3,14.9-33.3,33.3
		s14.9,33.3,33.3,33.3c16.3,0,29.9-11.8,32.7-27.3L-130.6,111.9z M-156.8,117.1c-5.7,0-10.3-4.6-10.3-10.3s4.6-10.3,10.3-10.3
		c5.7,0,10.3,4.6,10.3,10.3S-151.1,117.1-156.8,117.1z"/>
	<path class="st3" d="M-185,89.8l-6-9.6c0,0-6.5,6.4-9.8,0.9c-3.8-6.2,4-10.9,6.5-11.2c0,0-8.6-4.5-5.7-9.8c0,0,4.8-9.9,15.4,0.9
		c0,0-4.9-8.5,3.7-12.2c5.8-2.4,9.1,4.2,8.7,8.2c0,0,4.4-8.5,9.8-4.9c0,0,8,4.6-4.9,11.4l5.9,10.7L-172,83L-185,89.8z"/>
	<line class="st4" x1="-184.1" y1="74" x2="-176.5" y2="83.1"/>
	<line class="st4" x1="-176.6" y1="65.9" x2="-170.5" y2="79.1"/>
</g>
<g>
	<path class="st0" d="M178.9,192H13.1C5.9,192,0,186.1,0,178.9V13.1C0,5.9,5.9,0,13.1,0h165.8c7.2,0,13.1,5.9,13.1,13.1v165.8
		C192,186.1,186.1,192,178.9,192z"/>
	<path class="st1" d="M173.1,185.3H18.9c-6.7,0-12.2-5.5-12.2-12.2V18.9c0-6.7,5.5-12.2,12.2-12.2h154.1c6.7,0,12.2,5.5,12.2,12.2
		v154.1C185.3,179.8,179.8,185.3,173.1,185.3z"/>
	<path class="st2" d="M135.1,116.8c-3.2,16.3-17.6,28.6-34.9,28.6c-19.7,0-35.6-15.9-35.6-35.6c0-19.7,15.9-35.6,35.6-35.6
		c11.4,0,21.6,5.4,28.1,13.8L122,99.6c-3.8-8.2-12.2-13.9-21.8-13.9c-13.3,0-24.1,10.8-24.1,24.1c0,13.3,10.8,24.1,24.1,24.1
		c9.2,0,17.1-5.1,21.2-12.6h0l12.5-23.1l5.2-9.7c-1.7-3.2-3.9-6.1-6.3-8.8c-8.1-8.8-19.7-14.3-32.6-14.3
		c-24.5,0-44.3,19.9-44.3,44.3s19.9,44.3,44.3,44.3c21.8,0,39.9-15.7,43.6-36.3L135.1,116.8z M100.2,123.6
		c-7.6,0-13.8-6.2-13.8-13.8c0-7.6,6.2-13.8,13.8-13.8c7.6,0,13.8,6.2,13.8,13.8C114,117.4,107.8,123.6,100.2,123.6z"/>
	<path class="st3" d="M62.7,87.2l-8-12.8c0,0-8.7,8.6-13.1,1.2c-5-8.3,5.3-14.5,8.7-14.9c0,0-11.5-6-7.6-13.1c0,0,6.5-13.2,20.5,1.2
		c0,0-6.6-11.4,4.9-16.2c7.7-3.3,12.1,5.6,11.7,10.9c0,0,5.8-11.3,13.1-6.5c0,0,10.7,6.2-6.6,15.2l7.9,14.3L80.1,78.2L62.7,87.2z"/>
	<line class="st4" x1="63.9" y1="66.2" x2="74" y2="78.3"/>
	<line class="st4" x1="73.9" y1="55.4" x2="81.9" y2="73"/>
</g>
</svg>
